<?xml version="1.0" standalone="no"?>
<!DOCTYPE svg PUBLIC "-//W3C//DTD SVG 20010904//EN"
 "http://www.w3.org/TR/2001/REC-SVG-20010904/DTD/svg10.dtd">
<svg version="1.0" xmlns="http://www.w3.org/2000/svg"
 width="1024.000000pt" height="1024.000000pt" viewBox="0 0 1024.000000 1024.000000"
 preserveAspectRatio="xMidYMid meet">
<metadata>
Created by potrace 1.11, written by Peter Selinger 2001-2013
</metadata>
<g transform="translate(0.000000,1024.000000) scale(0.100000,-0.100000)"
fill="#000000" stroke="none">
<path d="M3198 8975 c-2 -2 -48 -6 -103 -10 -55 -4 -102 -8 -105 -10 -3 -1
-27 -6 -55 -9 -150 -20 -390 -98 -560 -182 -100 -49 -95 -47 -216 -126 -221
-145 -432 -358 -573 -578 -16 -25 -36 -56 -45 -70 -18 -28 -88 -169 -121 -243
-46 -105 -107 -318 -125 -437 -4 -25 -11 -70 -15 -100 -9 -59 -6 -426 4 -500
77 -565 398 -1075 876 -1394 88 -59 275 -158 337 -180 l35 -12 -143 -71 c-399
-198 -692 -483 -897 -873 -106 -203 -169 -403 -207 -650 -17 -117 -17 -440 0
-542 7 -40 16 -91 19 -113 25 -156 142 -469 229 -610 109 -178 170 -256 302
-393 329 -342 786 -559 1252 -597 72 -6 309 -6 343 -1 14 3 54 7 90 11 175 17
430 93 615 184 404 198 719 513 913 913 37 75 69 137 72 137 3 0 35 -62 72
-137 100 -207 208 -359 372 -526 45 -45 104 -99 131 -121 28 -22 52 -43 55
-46 19 -23 215 -147 310 -197 175 -91 422 -175 580 -196 25 -4 61 -9 80 -11
95 -13 135 -16 250 -16 140 0 199 4 350 27 19 3 88 19 152 34 399 99 767 332
1040 658 250 298 418 701 453 1082 12 131 6 357 -11 460 -2 14 -7 45 -10 70
-3 25 -19 95 -34 155 -140 557 -517 1024 -1037 1289 -50 26 -108 52 -128 59
l-37 13 143 71 c399 197 691 482 897 873 92 175 176 425 197 585 3 28 8 59 10
70 14 64 22 383 11 440 -2 11 -7 47 -10 80 -46 402 -242 812 -536 1119 -319
333 -743 548 -1185 601 -27 4 -61 8 -75 11 -33 6 -328 6 -360 0 -14 -2 -52 -7
-85 -11 -87 -9 -296 -59 -400 -95 -198 -69 -433 -200 -584 -325 -247 -206
-410 -409 -540 -677 -36 -75 -68 -137 -71 -137 -3 0 -35 62 -72 137 -189 390
-496 702 -885 900 -138 70 -334 140 -468 168 -119 24 -212 36 -325 40 -74 3
-143 7 -152 8 -9 2 -18 3 -20 1z m287 -40 c258 -37 423 -86 630 -184 435 -207
761 -552 968 -1022 l25 -56 -19 -54 c-23 -64 -63 -220 -78 -302 -30 -167 -33
-441 -7 -638 11 -79 64 -290 94 -369 10 -28 5 -43 -70 -200 -196 -409 -568
-762 -993 -943 l-80 -34 -55 19 c-98 34 -218 63 -340 83 -153 25 -455 25 -595
0 -16 -3 -56 -10 -87 -16 -66 -11 -264 -66 -287 -78 -19 -11 -79 12 -216 81
-89 45 -222 123 -235 138 -3 3 -41 32 -85 65 -206 153 -426 420 -552 670 -27
53 -89 197 -98 225 -1 3 -11 36 -23 74 -24 74 -51 183 -58 231 -2 17 -6 41 -9
55 -19 95 -26 352 -13 490 71 725 543 1357 1219 1631 123 50 303 102 396 115
26 3 51 8 54 10 4 2 42 7 85 10 44 3 81 8 83 10 5 5 300 -4 346 -11z m3705 1
c14 -2 46 -7 71 -10 196 -27 391 -87 582 -181 502 -244 873 -687 1029 -1230
16 -54 31 -113 33 -130 3 -16 10 -55 16 -85 32 -178 32 -454 0 -640 -17 -98
-23 -124 -47 -211 -111 -404 -379 -797 -714 -1045 -187 -138 -472 -285 -511
-263 -27 15 -229 68 -318 84 -330 59 -701 30 -1007 -78 -40 -15 -42 -14 -149
34 -323 144 -608 381 -817 679 -83 118 -218 379 -218 421 0 12 13 64 30 117
45 148 63 242 77 397 12 138 6 391 -11 471 -2 12 -7 39 -11 60 -12 76 -15 90
-46 194 -48 163 -48 154 12 282 99 212 217 382 379 549 255 262 576 448 916
533 137 33 166 39 279 51 39 4 71 8 73 10 5 4 325 -3 352 -9z m-2033 -1426
c17 -63 29 -112 37 -155 4 -16 9 -43 12 -60 3 -16 8 -41 10 -55 12 -65 11
-430 -1 -515 -25 -165 -79 -385 -95 -385 -11 0 -64 188 -75 265 -4 22 -8 47
-10 55 -27 103 -27 512 -1 640 3 14 11 50 17 80 16 80 50 202 62 225 12 22 8
30 44 -95z m1 -1350 c133 -316 412 -642 729 -851 96 -63 317 -179 342 -179 6
0 11 -4 11 -10 0 -5 -5 -10 -11 -10 -23 0 -243 -114 -331 -172 -138 -90 -201
-142 -319 -258 -113 -111 -197 -213 -276 -333 -51 -79 -173 -313 -173 -334 0
-7 -4 -13 -10 -13 -5 0 -10 4 -10 10 0 18 -87 196 -135 275 -100 165 -162 242
-311 391 -170 170 -382 318 -576 402 -48 20 -88 39 -88 42 0 3 36 20 80 39 44
19 117 56 162 83 44 26 83 48 85 48 8 0 153 108 225 167 149 123 314 317 419
493 48 80 139 263 139 280 0 28 18 2 48 -70z m1942 -934 c58 -3 116 -8 130
-11 14 -2 41 -7 60 -9 107 -15 330 -73 330 -87 0 -4 -10 -9 -22 -12 -13 -3
-65 -17 -117 -31 -52 -14 -115 -29 -140 -32 -25 -3 -49 -8 -52 -10 -43 -26
-493 -25 -625 0 -12 3 -39 7 -59 10 -43 7 -166 38 -235 60 -28 9 -39 16 -30
20 82 31 248 72 333 82 29 4 55 8 58 10 3 1 57 6 120 10 63 3 116 8 117 10 2
1 9 1 15 -1 7 -2 59 -6 117 -9z m-3620 -7 c105 -15 129 -19 204 -34 92 -19
216 -57 216 -66 0 -10 -210 -66 -320 -85 -111 -19 -453 -28 -545 -13 -33 5
-73 11 -90 14 -110 16 -310 69 -320 84 -7 12 223 73 330 88 22 3 63 9 90 13
72 10 359 10 435 -1z m-825 -142 c141 -51 388 -89 584 -91 180 -1 273 8 481
49 14 2 73 20 132 38 l106 34 106 -48 c226 -100 401 -222 587 -408 186 -187
308 -362 409 -588 l48 -107 -20 -55 c-22 -65 -65 -229 -74 -285 -3 -21 -7 -48
-10 -60 -23 -120 -23 -439 0 -586 18 -110 59 -281 84 -347 l19 -51 -24 -58
c-103 -255 -300 -535 -502 -713 -332 -292 -706 -456 -1141 -501 -78 -7 -342
-6 -395 3 -16 3 -64 11 -105 17 -662 102 -1249 574 -1504 1207 -98 246 -142
473 -140 743 1 315 62 578 200 858 102 206 208 356 364 512 184 184 315 279
535 387 183 90 162 86 260 50z m3696 7 c57 -20 222 -62 274 -69 22 -3 51 -8
65 -10 107 -19 382 -27 470 -14 25 4 70 10 100 13 75 9 267 52 336 76 72 25
84 25 142 -1 467 -207 810 -535 1018 -974 129 -273 188 -533 188 -830 -1 -165
-2 -190 -21 -315 -71 -479 -331 -925 -724 -1245 -119 -97 -356 -230 -524 -295
-77 -29 -238 -77 -294 -86 -14 -3 -51 -9 -81 -15 -128 -23 -413 -31 -530 -15
-25 3 -65 8 -89 11 -25 4 -74 13 -110 21 -36 8 -77 17 -91 20 -14 3 -72 21
-130 40 -406 135 -771 416 -1012 779 -60 90 -153 264 -190 355 -14 32 -12 42
14 125 28 85 59 221 72 310 29 194 25 481 -9 650 -2 11 -8 43 -14 70 -12 63
-59 222 -71 244 -6 12 1 41 24 97 184 446 555 828 1001 1029 111 50 123 52
186 29z m-1203 -1256 c26 -87 48 -186 56 -248 4 -25 10 -72 15 -105 11 -77 11
-353 1 -425 -5 -30 -11 -73 -14 -95 -4 -35 -15 -91 -30 -160 -9 -46 -48 -165
-55 -169 -4 -3 -13 16 -20 42 -7 26 -19 65 -26 88 -8 22 -16 60 -20 84 -4 25
-8 47 -10 50 -2 3 -6 23 -9 45 -3 22 -10 69 -15 105 -10 68 -7 412 4 490 6 38
16 89 50 242 10 44 39 128 45 128 4 0 17 -33 28 -72z"/>
<path d="M3278 8616 c-1 -2 -59 -6 -128 -10 -130 -6 -164 -11 -299 -46 -456
-116 -841 -429 -1054 -856 -71 -141 -134 -340 -152 -479 -4 -27 -9 -61 -11
-75 -5 -34 -6 -310 -1 -335 3 -11 8 -47 12 -80 15 -138 90 -367 167 -513 219
-418 599 -716 1056 -831 146 -37 263 -49 437 -45 118 2 146 4 225 19 14 3 41
7 60 10 134 22 315 90 472 178 395 219 697 621 794 1058 2 10 6 29 9 42 27
111 39 427 21 527 -3 14 -7 43 -11 65 -33 222 -141 486 -279 679 -284 396
-738 654 -1199 682 -51 3 -97 7 -104 9 -6 2 -13 2 -15 1z m132 -60 c435 -39
844 -267 1117 -625 398 -521 425 -1259 67 -1808 -201 -309 -502 -541 -844
-652 -102 -33 -102 -33 -230 -57 -187 -34 -444 -23 -645 27 -447 113 -824 418
-1033 834 -59 119 -119 296 -136 405 -3 19 -8 45 -10 57 -22 108 -22 360 -1
486 27 148 72 298 126 415 244 525 753 879 1319 919 47 3 86 6 87 7 4 3 114
-2 183 -8z"/>
<path d="M3090 8254 c-205 -31 -352 -84 -507 -181 -369 -231 -595 -623 -607
-1053 -7 -219 34 -412 129 -606 176 -361 505 -617 905 -700 91 -19 337 -26
438 -12 411 58 783 329 967 703 100 205 136 374 130 605 -4 139 -6 164 -19
220 -3 14 -10 43 -15 65 -23 106 -106 294 -172 392 -83 122 -196 242 -314 331
-130 97 -377 205 -522 227 -21 3 -50 8 -63 11 -55 11 -270 11 -350 -2z m355
-103 c107 -19 119 -21 185 -43 323 -104 597 -359 731 -679 17 -41 32 -81 34
-89 2 -8 13 -53 25 -100 28 -111 35 -328 15 -451 -72 -429 -370 -786 -780
-931 -132 -48 -220 -62 -375 -63 -160 0 -209 5 -321 35 -511 134 -879 604
-882 1125 -1 142 8 218 39 334 87 321 319 603 619 753 118 59 260 101 382 114
32 4 59 7 61 9 7 6 216 -4 267 -14z"/>
<path d="M3070 7900 c-374 -81 -657 -367 -736 -745 -13 -66 -13 -262 1 -342
130 -727 1018 -1030 1560 -530 98 90 158 172 215 292 123 260 125 543 5 803
-114 246 -327 426 -601 508 -120 35 -317 42 -444 14z m350 -145 c69 -14 197
-66 264 -110 191 -122 317 -310 357 -528 11 -64 14 -210 4 -262 -65 -345 -316
-595 -660 -660 -37 -7 -216 -8 -236 -1 -8 3 -30 7 -49 10 -118 17 -289 108
-389 208 -165 163 -244 363 -236 593 7 210 80 382 224 526 111 111 252 189
406 223 70 15 236 16 315 1z"/>
<path d="M3140 7464 c-90 -24 -161 -65 -230 -134 -104 -104 -151 -225 -145
-373 11 -273 233 -482 506 -478 267 3 489 226 490 490 0 42 -2 85 -5 96 -14
65 -22 86 -53 146 -56 109 -159 198 -278 240 -76 27 -209 33 -285 13z"/>
<path d="M6957 8614 c-1 -1 -47 -4 -102 -8 -693 -43 -1292 -547 -1464 -1234
-43 -169 -58 -390 -39 -572 49 -484 333 -937 752 -1205 122 -78 356 -180 461
-201 11 -2 31 -6 45 -9 146 -32 216 -39 370 -39 200 -1 330 20 525 85 479 159
867 549 1026 1034 27 82 59 220 65 280 3 28 7 64 10 80 6 30 6 267 0 315 -30
270 -120 523 -262 737 -301 453 -784 720 -1332 736 -30 1 -54 1 -55 1z m165
-58 c400 -28 817 -249 1083 -576 180 -222 309 -514 341 -775 2 -16 6 -46 9
-65 7 -42 7 -271 0 -320 -2 -19 -7 -52 -11 -73 -3 -20 -7 -47 -9 -60 -13 -100
-78 -294 -139 -415 -46 -92 -147 -247 -202 -311 -272 -316 -643 -514 -1048
-559 -131 -14 -351 -6 -466 18 -543 114 -971 468 -1175 975 -133 330 -147 715
-38 1059 169 535 625 954 1163 1070 113 24 127 26 225 32 50 3 91 7 92 8 3 2
65 -1 175 -8z"/>
<path d="M6889 8265 c-2 -1 -33 -6 -69 -9 -271 -25 -558 -168 -766 -382 -192
-197 -310 -437 -352 -714 -14 -92 -7 -351 12 -435 92 -407 335 -723 691 -899
192 -95 358 -134 572 -134 271 0 518 77 740 230 93 64 230 197 301 293 98 132
207 384 227 524 3 20 9 56 12 81 14 84 7 301 -11 390 -24 115 -22 107 -46 180
-139 422 -540 776 -964 850 -34 6 -72 13 -86 16 -30 6 -256 14 -261 9z m250
-110 c159 -19 352 -93 501 -191 97 -63 253 -218 317 -314 149 -225 209 -428
206 -690 -1 -101 -5 -140 -29 -260 -11 -56 -58 -180 -95 -254 -152 -301 -426
-526 -750 -614 -107 -29 -130 -32 -272 -38 -669 -25 -1228 514 -1225 1183 1
200 34 345 120 521 175 360 539 620 920 658 35 3 64 7 66 9 5 5 182 -2 241
-10z"/>
<path d="M6850 7913 c-280 -47 -507 -191 -657 -415 -250 -374 -194 -887 130
-1195 87 -82 139 -120 235 -168 400 -200 898 -86 1165 268 141 186 199 371
193 607 -4 147 -26 239 -85 366 -120 254 -346 443 -619 515 -74 20 -297 33
-362 22z m270 -156 c14 -4 47 -12 73 -18 61 -14 177 -70 241 -116 208 -149
329 -377 330 -623 1 -136 -7 -190 -44 -293 -113 -312 -418 -523 -750 -518 -86
1 -117 4 -180 20 -133 34 -262 107 -359 201 -164 160 -244 350 -242 575 2 107
4 122 26 200 55 189 169 346 329 453 76 50 213 106 286 117 25 4 47 8 48 10 6
6 215 -2 242 -8z"/>
<path d="M6880 7470 c-264 -54 -439 -312 -395 -585 30 -184 193 -353 381 -395
167 -38 346 15 467 137 91 90 138 200 142 331 8 224 -118 412 -330 492 -63 23
-198 34 -265 20z"/>
<path d="M3148 4895 c-1 -1 -34 -5 -72 -9 -176 -17 -397 -84 -565 -172 -301
-159 -522 -376 -690 -677 -186 -335 -242 -782 -146 -1167 101 -406 353 -759
700 -982 189 -122 443 -218 645 -243 30 -4 64 -9 75 -11 26 -6 334 -6 343 0 4
2 32 7 62 10 140 17 326 74 476 147 315 153 576 408 738 719 128 248 182 479
180 775 -2 217 -44 421 -128 618 -44 102 -141 277 -175 315 -9 9 -29 35 -45
57 -44 60 -212 226 -286 282 -210 162 -484 282 -725 317 -23 4 -52 9 -65 12
-27 5 -316 14 -322 9z m316 -60 c79 -11 103 -16 196 -40 518 -132 944 -533
1108 -1045 17 -52 34 -111 38 -130 4 -19 8 -37 9 -40 1 -3 5 -27 10 -55 4 -27
10 -59 12 -70 9 -41 10 -293 2 -365 -97 -813 -774 -1414 -1590 -1412 -453 1
-895 207 -1188 553 -88 104 -91 108 -148 202 -159 260 -233 524 -234 829 -3
739 521 1390 1243 1547 53 11 127 24 164 27 38 4 70 8 72 9 5 4 266 -4 306
-10z"/>
<path d="M3110 4543 c-155 -21 -335 -78 -459 -145 -157 -86 -323 -230 -429
-373 -96 -129 -201 -368 -226 -515 -30 -173 -27 -378 6 -520 76 -330 248 -587
520 -782 220 -158 501 -242 778 -232 63 2 126 6 140 8 14 3 43 8 65 11 154 26
379 124 515 225 129 95 284 263 346 375 6 11 22 40 36 65 44 80 87 196 115
307 24 97 27 126 27 288 0 202 -12 283 -69 442 -109 304 -350 576 -640 721
-171 85 -391 134 -585 130 -63 -1 -126 -3 -140 -5z m333 -108 c386 -59 720
-309 892 -667 46 -97 87 -225 101 -318 11 -69 12 -309 1 -371 -85 -516 -498
-922 -1012 -995 -122 -17 -326 -7 -440 22 -442 114 -769 442 -879 879 -20 83
-29 155 -31 259 -1 81 3 125 21 250 15 105 103 316 177 426 219 326 581 522
972 529 55 1 144 -5 198 -14z"/>
<path d="M3207 4204 c-1 -1 -29 -4 -62 -8 -83 -8 -194 -40 -281 -80 -246 -114
-427 -327 -510 -601 -24 -81 -27 -106 -28 -245 0 -130 4 -168 23 -240 90 -337
345 -593 678 -681 103 -27 299 -34 403 -14 454 88 772 469 774 925 1 471 -358
881 -822 936 -55 7 -170 12 -175 8z m154 -158 c156 -16 330 -100 448 -216 128
-125 201 -264 236 -445 7 -36 8 -201 1 -231 -2 -12 -7 -37 -10 -55 -3 -19 -14
-59 -24 -89 -86 -250 -288 -440 -542 -510 -119 -33 -300 -34 -413 -2 -232 66
-409 216 -511 433 -56 118 -71 186 -71 334 0 142 16 214 75 339 116 244 365
419 633 445 71 7 87 6 178 -3z"/>
<path d="M3190 3758 c-83 -11 -210 -72 -269 -129 -98 -96 -150 -211 -156 -347
-7 -147 40 -267 145 -372 107 -106 221 -151 371 -145 135 5 242 52 336 146
118 118 170 300 133 464 -44 195 -228 363 -419 381 -31 3 -60 6 -66 8 -5 1
-39 -2 -75 -6z"/>
<path d="M6807 4889 c-27 -4 -70 -10 -95 -14 -202 -27 -456 -128 -645 -256
-107 -73 -121 -84 -226 -184 -231 -220 -390 -504 -461 -824 -46 -207 -48 -468
-4 -680 62 -301 216 -588 433 -809 111 -113 146 -143 257 -217 272 -184 582
-277 912 -276 518 1 959 217 1293 631 157 195 299 525 324 755 3 28 8 61 10
75 6 26 7 295 1 340 -46 385 -203 714 -466 980 -47 47 -103 101 -125 118 -240
193 -517 312 -830 358 -55 8 -329 10 -378 3z m368 -53 c97 -12 257 -53 361
-92 558 -208 951 -717 1019 -1319 8 -66 8 -280 0 -330 -3 -22 -8 -53 -10 -70
-69 -462 -346 -876 -750 -1120 -288 -174 -645 -254 -980 -220 -459 46 -898
311 -1152 695 -312 471 -355 1046 -118 1557 205 439 614 766 1093 873 51 11
126 23 165 26 40 4 73 8 75 9 5 5 242 -3 297 -9z"/>
<path d="M6765 4534 c-281 -50 -529 -184 -723 -388 -173 -184 -277 -388 -332
-651 -24 -116 -22 -370 4 -490 68 -314 241 -586 496 -779 131 -99 371 -205
525 -231 22 -3 51 -8 65 -11 115 -19 344 -7 481 25 385 89 737 389 885 752 35
85 72 211 80 268 3 25 10 68 14 96 8 51 5 272 -4 315 -3 13 -8 42 -11 63 -13
84 -58 217 -110 324 -125 256 -342 474 -590 592 -38 18 -77 37 -85 41 -24 11
-180 57 -220 64 -19 3 -46 9 -60 12 -56 14 -336 12 -415 -2z m398 -99 c511
-78 925 -502 992 -1015 30 -223 -10 -478 -102 -665 -28 -55 -93 -167 -103
-175 -3 -3 -22 -28 -43 -56 -80 -111 -249 -250 -395 -323 -507 -256 -1132
-112 -1476 339 -86 113 -141 216 -186 351 -25 72 -25 72 -45 190 -23 129 -14
337 19 459 14 52 28 104 31 115 11 44 98 211 147 283 68 98 202 232 301 300
146 100 354 183 500 198 34 3 63 8 65 9 11 9 214 3 295 -10z"/>
<path d="M6915 4203 c-602 -50 -1001 -614 -844 -1192 79 -291 297 -527 584
-633 121 -45 175 -53 340 -53 153 1 247 22 381 84 255 120 443 345 515 618 30
113 34 309 9 425 -77 353 -329 623 -669 717 -98 27 -227 41 -316 34z m165
-157 c74 -9 100 -16 180 -47 432 -166 633 -674 428 -1083 -112 -225 -304 -373
-559 -432 -48 -11 -219 -13 -276 -3 -318 56 -568 289 -644 598 -20 83 -28 227
-15 287 3 16 8 44 11 62 13 78 68 204 128 291 124 180 368 320 577 330 30 2
57 4 58 6 2 2 18 2 35 0 18 -2 52 -7 77 -9z"/>
<path d="M6988 3765 c-2 -2 -25 -5 -53 -6 -145 -8 -300 -102 -380 -229 -123
-196 -94 -460 70 -621 98 -96 199 -139 338 -144 275 -10 503 201 512 473 4
134 -28 238 -104 331 -62 76 -86 96 -166 136 -58 29 -207 70 -217 60z"/>
</g>
</svg>
